<svg width="106" height="183" viewBox="0 0 106 183" fill="none" xmlns="http://www.w3.org/2000/svg">
<circle cx="5" cy="5" r="5" fill="#FFD900"/>
<circle cx="29" cy="5" r="5" fill="#FFD900"/>
<circle cx="53" cy="5" r="5" fill="#FFD900"/>
<circle cx="77" cy="5" r="5" fill="#FFD900"/>
<circle cx="101" cy="5" r="5" fill="#FFD900"/>
<circle cx="5" cy="34" r="5" fill="#FFD900"/>
<circle cx="29" cy="34" r="5" fill="#FFD900"/>
<circle cx="53" cy="34" r="5" fill="#FFD900"/>
<circle cx="77" cy="34" r="5" fill="#FFD900"/>
<circle cx="101" cy="34" r="5" fill="#FFD900"/>
<circle cx="5" cy="70" r="5" fill="#FFD900"/>
<circle cx="29" cy="70" r="5" fill="#FFD900"/>
<circle cx="53" cy="70" r="5" fill="#FFD900"/>
<circle cx="77" cy="70" r="5" fill="#FFD900"/>
<circle cx="101" cy="70" r="5" fill="#FFD900"/>
<circle cx="5" cy="106" r="5" fill="#FFD900"/>
<circle cx="29" cy="106" r="5" fill="#FFD900"/>
<circle cx="53" cy="106" r="5" fill="#FFD900"/>
<circle cx="77" cy="106" r="5" fill="#FFD900"/>
<circle cx="101" cy="106" r="5" fill="#FFD900"/>
<circle cx="5" cy="142" r="5" fill="#FFD900"/>
<circle cx="29" cy="142" r="5" fill="#FFD900"/>
<circle cx="53" cy="142" r="5" fill="#FFD900"/>
<circle cx="77" cy="142" r="5" fill="#FFD900"/>
<circle cx="101" cy="142" r="5" fill="#FFD900"/>
<circle cx="5" cy="178" r="5" fill="#FFD900"/>
<circle cx="29" cy="178" r="5" fill="#FFD900"/>
<circle cx="53" cy="178" r="5" fill="#FFD900"/>
<circle cx="77" cy="178" r="5" fill="#FFD900"/>
<circle cx="101" cy="178" r="5" fill="#FFD900"/>
</svg>
